# xmcd
#
# Track frame offsets:
#	150
#	19498
#	46873
#	69550
#	90899
#	113599
#	134198
#	157542
#	179436
#	203188
#	224001
#	245838
#	271048
#	294161
#	312603
#
# Disc length: 4433 seconds
#
# Revision: 0
# Processed by: cddbd v1.5PL3 Copyright (c) Steve Scherf et al.
# Submitted via: audiograbber 1.83.01
#
DISCID=da114f0f
DTITLE=Ringenes Herre - Atter En Konge 12
DYEAR=1900
DGENRE=
TTITLE0=Kap. 07 Veien Hjem 05
TTITLE1=Kap. 08 Lutringen Av Hobsyssel 01
TTITLE2=Kap. 08 Lutringen Av Hobsyssel 02
TTITLE3=Kap. 08 Lutringen Av Hobsyssel 03
TTITLE4=Kap. 08 Lutringen Av Hobsyssel 04
TTITLE5=Kap. 08 Lutringen Av Hobsyssel 05
TTITLE6=Kap. 08 Lutringen Av Hobsyssel 06
TTITLE7=Kap. 08 Lutringen Av Hobsyssel 07
TTITLE8=Kap. 08 Lutringen Av Hobsyssel 08
TTITLE9=Kap. 08 Lutringen Av Hobsyssel 09
TTITLE10=Kap. 08 Lutringen Av Hobsyssel 10
TTITLE11=Kap. 08 Lutringen Av Hobsyssel 11
TTITLE12=Kap. 08 Lutringen Av Hobsyssel 12
TTITLE13=Kap. 08 Lutringen Av Hobsyssel 13
TTITLE14=Kap. 08 Lutringen Av Hobsyssel 14
EXTD=
EXTT0=
EXTT1=
EXTT2=
EXTT3=
EXTT4=
EXTT5=
EXTT6=
EXTT7=
EXTT8=
EXTT9=
EXTT10=
EXTT11=
EXTT12=
EXTT13=
EXTT14=
PLAYORDER=
